# AST/ASF file generated using VICON BodyLanguage
# -----------------------------------------------
:version 1.10
:name VICON
:units
  mass 1.0
  length 0.45
  angle deg
:documentation
   .ast/.asf automatically generated from VICON data using
   VICON BodyBuilder and BodyLanguage model FoxedUp or BRILLIANT.MOD
:root
   order TX TY TZ RX RY RZ
   axis XYZ
   position 0 0 0  
   orientation 0 0 0 
:bonedata
  begin
     id 1 
     name lhipjoint
     direction 0.722297 -0.617336 0.311742 
     length 2.6635 
     axis 0 0 0  XYZ
  end
  begin
     id 2 
     name lfemur
     direction 0.34202 -0.939693 0  
     length 7.39349  
     axis 0 0 20  XYZ
    dof rx ry rz
    limits (-160.0 20.0)
           (-70.0 70.0)
           (-60.0 70.0)
  end
  begin
     id 3 
     name ltibia
     direction 0.34202 -0.939693 0   
     length 7.36294   
     axis 0 0 20   XYZ
    dof rx
    limits (-10.0 170.0)
  end
  begin
     id 4 
     name lfoot
     direction 0.104879 -0.288152 0.951824   
     length 2.16981   
     axis -90 7.62852e-016 20   XYZ
    dof rx rz
    limits (-45.0 90.0)
           (-70.0 20.0)
  end
  begin
     id 5 
     name ltoes
     direction 1.53586e-011 -4.21895e-011 1   
     length 1.08218   
     axis -90 7.62852e-016 20   XYZ
    dof rx
    limits (-90.0 20.0)
  end
  begin
     id 6 
     name rhipjoint
     direction -0.75102 -0.589393 0.297631   
     length 2.78977  
     axis 0 0 0  XYZ 
  end
  begin
     id 7 
     name rfemur
     direction -0.34202 -0.939693 0   
     length 7.46076   
     axis 0 0 -20   XYZ
    dof rx ry rz
    limits (-160.0 20.0)
           (-70.0 70.0)
           (-70.0 60.0)
  end
  begin
     id 8 
     name rtibia
     direction -0.34202 -0.939693 0   
     length 7.31726   
     axis 0 0 -20   XYZ
    dof rx
    limits (-10.0 170.0)
 end
 begin
     id 9 
     name rfoot
     direction -0.107991 -0.296704 0.948844   
     length 2.09388  
     axis -90 -7.62852e-016 -20   XYZ
    dof rx rz
    limits (-45.0 90.0)
           (-20.0 70.0)
  end
  begin
     id 10 
     name rtoes
     direction -1.53559e-011 -4.21911e-011 1   
     length 1.04433   
     axis -90 -7.62852e-016 -20   XYZ
    dof rx
    limits (-90.0 20.0)
  end
  begin
     id 11 
     name lowerback
     direction 0.0165164 0.98272 0.184358   
     length 1.71896   
     axis 0 0 0   XYZ
    dof rx ry rz
    limits (-20.0 45.0)
           (-30.0 30.0)
           (-30.0 30.0)
  end
  begin
     id 12 
     name upperback
     direction -0.00887249 0.992297 0.123566   
     length 1.71504   
     axis 0 0 0   XYZ
    dof rx ry rz
    limits (-20.0 45.0)
           (-30.0 30.0)
           (-30.0 30.0)
  end
  begin
     id 13 
     name thorax
     direction -0.0157026 0.998908 0.0440032   
     length 1.77022   
     axis 0 0 0   XYZ
    dof rx ry rz
    limits (-20.0 45.0)
           (-30.0 30.0)
           (-30.0 30.0)
  end
  begin
     id 14 
     name lowerneck
     direction -0.0238856 0.998137 0.0561411   
     length 1.89341   
     axis 0 0 0   XYZ
    dof rx ry rz
    limits (-20.0 45.0)
           (-30.0 30.0)
           (-30.0 30.0)
  end
  begin
     id 15 
     name upperneck
     direction 0.0276574 0.952253 -0.304056   
     length 1.86999   
     axis 0 0 0   XYZ
    dof rx ry rz
    limits (-20.0 45.0)
           (-30.0 30.0)
           (-30.0 30.0)
  end
  begin
     id 16
     name head
     direction 0.00800083 0.994258 -0.106712  
     length 1.91492  
     axis 0 0 0   XYZ
    dof rx ry rz
    limits (-20.0 45.0)
           (-30.0 30.0)
           (-30.0 30.0)
  end
  begin
     id 17 
     name lclavicle
     direction 0.97203 0.225407 0.06595  
     length 3.34889  
     axis 0 0 0   XYZ
    dof ry rz
    limits (-20.0 10.0)
           (0.0 20.0)
  end
  begin
     id 18 
     name lhumerus
     direction 1 -4.48973e-011 2.20267e-027   
     length 4.85645   
     axis 180 -30 -90   XYZ
    dof rx ry rz
    limits (-60.0 90.0)
           (-90.0 90.0)
           (-90.0 90.0)
  end
  begin
     id 19
     name lradius
     direction 1 -4.4897e-011 4.60472e-027   
     length 2.79874   
     axis 180 -30 -90   XYZ
    dof rx
    limits (-10.0 170.0)
  end
  begin
     id 20
     name lwrist
     direction 1 -4.48952e-011 1.14928e-026   
     length 1.39937   
     axis -6.29373e-015 90 90   XYZ
    dof ry
    limits (-180.0 0.0)
 end
  begin
     id 21 
     name lhand
     direction 1 -4.48967e-011 2.29886e-026   
     length 0.573398   
     axis -1.46689e-014 90 90   XYZ
    dof rx rz
    limits (-90.0 90.0)
           (-45.0 45.0)
  end
  begin
     id 22 
     name lfingers
     direction 1 -4.48955e-011 4.59726e-026   
     length 0.462289   
     axis -2.93383e-014 90 90   XYZ
    dof rx
    limits (0.0 90.0)
  end
  begin
     id 23
     name lthumb
     direction 0.707107 -6.34866e-011 0.707107   
     length 0.663757   
     axis -90 45 5.69224e-014   XYZ
    dof rx rz
    limits (-45.0 45.0)
           (-45.0 45.0)
  end
  begin
     id 24 
     name rclavicle
     direction -0.981571 0.157346 0.108443   
     length 3.35257  
     axis 0 0 0   XYZ 
    dof ry rz
    limits (-10.0 20.0)
           (-20.0 0.0)
  end
  begin
     id 25 
     name rhumerus
     direction -1 -4.48967e-011 8.58308e-029  
     length 4.67018   
     axis 180 30 90   XYZ
    dof rx ry rz
    limits (-90.0 60.0)
           (-90.0 90.0)
           (-90.0 90.0)
  end
  begin
     id 26 
     name rradius
     direction -1 -4.48958e-011 4.52548e-027   
     length 2.65534   
     axis 180 30 90   XYZ
    dof rx
    limits (-10.0 170.0)
  end
  begin
     id 27 
     name rwrist
     direction -1 -4.48977e-011 1.14952e-026   
     length 1.32767   
     axis -6.29373e-015 -90 -90   XYZ
    dof ry
    limits (-180.0 0.0)
  end
  begin
     id 28
     name rhand
     direction -1 -4.48924e-011 2.29804e-026   
     length 0.594069   
     axis -1.46689e-014 -90 -90   XYZ
    dof rx rz
    limits (-90.0 90.0)
           (-45.0 45.0)
  end
  begin
     id 29
     name rfingers
     direction -1 -4.48998e-011 4.59888e-026   
     length 0.478954   
     axis -2.93383e-014 -90 -90   XYZ
    dof rx
    limits (0.0 90.0)
  end
  begin
     id 30
     name rthumb
     direction -0.707107 -6.34933e-011 0.707107   
     length 0.687685   
     axis -90 -45 -5.69224e-014   XYZ
    dof rx rz
    limits (-45.0 45.0)
           (-45.0 45.0)
  end
:hierarchy
  begin
    root lhipjoint rhipjoint lowerback
    lhipjoint lfemur
    lfemur ltibia
    ltibia lfoot
    lfoot ltoes
    rhipjoint rfemur
    rfemur rtibia
    rtibia rfoot
    rfoot rtoes
    lowerback upperback
    upperback thorax
    thorax lowerneck lclavicle rclavicle
    lowerneck upperneck
    upperneck head
    lclavicle lhumerus
    lhumerus lradius
    lradius lwrist
    lwrist lhand lthumb
    lhand lfingers
    rclavicle rhumerus
    rhumerus rradius
    rradius rwrist
    rwrist rhand rthumb
    rhand rfingers
  end

#!OML:ASF E:\pregnant2\Project 1\Capture day 1\Session 1\pregnant2.ASF
:FULLY-SPECIFIED
:DEGREES
953
root -4.25083 17.3932 20.3173 28.8259 7.49352 1.75545
lowerback -17.2985 0.89408 0.81423
upperback -14.8602 1.17723 -0.759701
thorax -6.34525 0.531746 -1.13903
lowerneck -13.3301 -7.51926 -10.4826
upperneck 30.4667 -9.88936 5.31282
head 13.2743 -4.90893 2.30042
rclavicle -2.36305e-014 -2.98177e-015
rhumerus -35.0388 19.4504 -58.0311
rradius 70.9617
rwrist 33.314
rhand -4.11011 -7.70479
rfingers 7.12502
rthumb 21.6482 -36.5146
lclavicle -2.36305e-014 -2.98177e-015
lhumerus -56.4965 -5.62017 50.7861
lradius 63.078
lwrist -13.1626
lhand 3.40739 17.5154
lfingers 7.12502
lthumb 28.8498 45.3049
rfemur -38.7136 17.9163 7.46424
rtibia 29.1734
rfoot -23.292 -32.2098
rtoes 7.14098
lfemur -36.7201 -10.8328 -14.6659
ltibia 22.7105
lfoot -11.6931 17.3488
ltoes -4.16846
954
root -4.25157 17.3937 20.312 28.8104 7.4751 1.72319
lowerback -17.2899 0.845507 0.761292
upperback -14.8569 1.11862 -0.746412
thorax -6.34832 0.506906 -1.10192
lowerneck -13.4731 -7.48006 -10.4054
upperneck 30.5146 -9.8381 5.30449
head 13.3139 -4.87567 2.28875
rclavicle 2.25124e-014 -5.96354e-016
rhumerus -34.4294 19.4083 -57.0896
rradius 72.9179
rwrist 33.7231
rhand -3.85102 -7.52867
rfingers 7.12502
rthumb 21.897 -36.3096
lclavicle 2.25124e-014 -5.96354e-016
lhumerus -56.076 -6.47914 51.6219
lradius 65.663
lwrist -13.7568
lhand 4.06023 16.9518
lfingers 7.12502
lthumb 29.4732 44.6332
rfemur -38.7179 17.9667 7.47228
rtibia 29.14
rfoot -23.2661 -32.2388
rtoes 7.16013
lfemur -36.7395 -10.8244 -14.6309
ltibia 22.7445
lfoot -11.7 17.3637
ltoes -4.15373
955
root -4.25242 17.3942 20.307 28.7938 7.4516 1.68708
lowerback -17.2821 0.794398 0.704804
upperback -14.8535 1.05719 -0.725776
thorax -6.35104 0.48132 -1.05526
lowerneck -13.6092 -7.43605 -10.3342
upperneck 30.56 -9.77801 5.29372
head 13.3505 -4.83971 2.27893
rclavicle 1.83876e-014 -1.78906e-015
rhumerus -33.8011 19.3364 -56.1301
rradius 74.8877
rwrist 33.9888
rhand -3.65303 -7.41006
rfingers 7.12502
rthumb 22.0871 -36.1686
lclavicle 1.83876e-014 -1.78906e-015
lhumerus -55.6398 -7.32201 52.3112
lradius 68.3066
lwrist -14.3238
lhand 4.45001 16.4634
lfingers 7.12502
lthumb 29.8452 44.0786
rfemur -38.7202 18.0125 7.48742
rtibia 29.1034
rfoot -23.2291 -32.2587
rtoes 7.17243
lfemur -36.7568 -10.8151 -14.5919
ltibia 22.7806
lfoot -11.7109 17.3841
ltoes -4.13363
956
root -4.25334 17.3946 20.3024 28.7762 7.42373 1.64951
lowerback -17.2765 0.742074 0.646375
upperback -14.8496 0.994426 -0.700564
thorax -6.35203 0.455468 -1.00273
lowerneck -13.7324 -7.38702 -10.2718
upperneck 30.5997 -9.71019 5.28612
head 13.3821 -4.80131 2.27364
rclavicle 2.03754e-014 3.29983e-014
rhumerus -33.1438 19.2392 -55.1505
rradius 76.8502
rwrist 34.1198
rhand -3.48994 -7.33204
rfingers 7.12502
rthumb 22.2437 -36.072
lclavicle 2.03754e-014 3.29983e-014
lhumerus -55.183 -8.14704 52.8531
lradius 71.0015
lwrist -14.7981
lhand 4.62117 16.1234
lfingers 7.12502
lthumb 30.0086 43.7092
rfemur -38.7189 18.0379 7.51457
rtibia 29.0654
rfoot -23.175 -32.2591
rtoes 7.16129
lfemur -36.7711 -10.8072 -14.5506
ltibia 22.8172
lfoot -11.7275 17.4101
ltoes -4.10274
957
root -4.25434 17.395 20.298 28.7584 7.38923 1.61191
lowerback -17.2734 0.692221 0.58654
upperback -14.846 0.935104 -0.673677
thorax -6.3519 0.431583 -0.947185
lowerneck -13.8154 -7.32669 -10.236
upperneck 30.6143 -9.63148 5.31064
head 13.3971 -4.758 2.2886
rclavicle 1.46604e-014 1.51076e-014
rhumerus -32.4648 19.1126 -54.1502
rradius 78.808
rwrist 34.137
rhand -3.36109 -7.29493
rfingers 7.12502
rthumb 22.3674 -36.0201
lclavicle 1.46604e-014 1.51076e-014
lhumerus -54.6961 -8.9532 53.245
lradius 73.7245
lwrist -15.1338
lhand 4.6132 15.8888
lfingers 7.12502
lthumb 30.001 43.4759
rfemur -38.7185 18.065 7.54065
rtibia 29.028
rfoot -23.1203 -32.255
rtoes 7.15524
lfemur -36.7819 -10.7999 -14.5092
ltibia 22.8525
lfoot -11.7483 17.4423
ltoes -4.05552
